<?xml version="1.0" standalone="no"?>
<!DOCTYPE svg PUBLIC "-//W3C//DTD SVG 20010904//EN"
 "http://www.w3.org/TR/2001/REC-SVG-20010904/DTD/svg10.dtd">
<svg version="1.0" xmlns="http://www.w3.org/2000/svg"
 width="700.000000pt" height="700.000000pt" viewBox="0 0 700.000000 700.000000"
 preserveAspectRatio="xMidYMid meet">
<metadata>
Created by potrace 1.11, written by Peter Selinger 2001-2013
</metadata>
<g transform="translate(0.000000,700.000000) scale(0.100000,-0.100000)"
fill="#000000" stroke="none">
<path d="M4455 5059 c-60 -4 -135 -12 -165 -17 -113 -20 -319 -83 -352 -108
-7 -6 -32 -17 -55 -26 -66 -25 -261 -159 -346 -239 -230 -214 -388 -493 -467
-826 -23 -96 -24 -101 -46 -261 -8 -52 -12 -1642 -5 -1643 3 0 213 -1 466 -1
l460 -1 5 341 c3 192 1 342 -4 342 -5 0 -3 6 3 13 6 8 8 18 4 23 -4 5 13 -9
37 -32 131 -119 289 -197 455 -223 56 -9 339 -8 403 2 365 52 640 246 801 565
28 55 71 160 77 187 2 6 12 46 23 90 28 106 47 285 45 415 -8 577 -256 1037
-677 1256 -94 49 -239 103 -297 110 -19 3 -48 9 -65 14 -16 5 -64 11 -104 15
-41 3 -77 7 -80 9 -4 1 -55 -1 -116 -5z m51 -850 c105 -4 190 -43 244 -112 26
-32 75 -141 84 -182 3 -16 9 -43 12 -60 16 -71 12 -333 -6 -432 -62 -344 -234
-467 -580 -417 -113 16 -183 44 -253 99 l-57 46 3 462 c1 254 5 469 8 477 12
36 45 73 83 92 36 19 62 22 201 25 88 2 167 5 175 7 8 1 18 1 21 0 3 -2 32 -4
65 -5z"/>
<path d="M2688 5055 c-1 -1 -30 -5 -63 -9 -66 -6 -149 -27 -210 -52 -91 -38
-250 -126 -300 -166 -120 -95 -161 -131 -220 -187 -274 -265 -500 -615 -623
-966 -69 -197 -66 -156 -67 -747 l-1 -538 508 0 508 0 0 703 c0 386 3 729 6
762 11 132 49 231 109 283 76 68 166 86 427 87 83 0 139 4 141 10 2 5 4 192 3
415 l-1 405 -107 2 c-58 1 -108 0 -110 -2z"/>
</g>
</svg>
