<?xml version="1.0" encoding="UTF-8" standalone="no"?>
<!-- Created with Inkscape (http://www.inkscape.org/) -->

<svg
   xmlns:dc="http://purl.org/dc/elements/1.1/"
   xmlns:cc="http://creativecommons.org/ns#"
   xmlns:rdf="http://www.w3.org/1999/02/22-rdf-syntax-ns#"
   xmlns:svg="http://www.w3.org/2000/svg"
   xmlns="http://www.w3.org/2000/svg"
   xmlns:sodipodi="http://sodipodi.sourceforge.net/DTD/sodipodi-0.dtd"
   xmlns:inkscape="http://www.inkscape.org/namespaces/inkscape"
   width="213.01254mm"
   height="47.608566mm"
   viewBox="0 0 754.76885 168.69177"
   id="svg4387"
   version="1.1"
   inkscape:version="0.91 r13725"
   sodipodi:docname="Reshwap Backup Logo 6.svg">
  <defs
     id="defs4389">
    <clipPath
       clipPathUnits="userSpaceOnUse"
       id="clipPath9020">
      <rect
         style="fill:#1c4aff;fill-opacity:1;fill-rule:nonzero;stroke:none;stroke-width:5;stroke-miterlimit:4;stroke-dasharray:none;stroke-opacity:1"
         id="rect9022"
         width="796.00018"
         height="370.72598"
         x="-107.07614"
         y="-78.791908"
         ry="19.191401" />
    </clipPath>
    <clipPath
       clipPathUnits="userSpaceOnUse"
       id="clipPath9136">
      <rect
         style="fill:#ffffff;fill-opacity:1;fill-rule:nonzero;stroke:none;stroke-width:5;stroke-miterlimit:4;stroke-dasharray:none;stroke-opacity:1"
         id="rect9138"
         width="105.71429"
         height="312.85715"
         x="-18.571383"
         y="-55.471302"
         ry="19.191401" />
    </clipPath>
    <clipPath
       clipPathUnits="userSpaceOnUse"
       id="clipPath9136-2">
      <rect
         style="fill:#ffffff;fill-opacity:1;fill-rule:nonzero;stroke:none;stroke-width:5;stroke-miterlimit:4;stroke-dasharray:none;stroke-opacity:1"
         id="rect9138-3"
         width="105.71429"
         height="312.85715"
         x="-18.571383"
         y="-55.471302"
         ry="19.191401" />
    </clipPath>
    <clipPath
       clipPathUnits="userSpaceOnUse"
       id="clipPath11270">
      <rect
         style="fill:#feffff;fill-opacity:1;fill-rule:nonzero;stroke:none;stroke-width:5;stroke-miterlimit:4;stroke-dasharray:none;stroke-opacity:1"
         id="rect11272"
         width="147.64563"
         height="222.43126"
         x="-645.42365"
         y="-103.34381"
         ry="22.610294" />
    </clipPath>
  </defs>
  <sodipodi:namedview
     id="base"
     pagecolor="#ff7371"
     bordercolor="#666666"
     borderopacity="1.0"
     inkscape:pageopacity="0"
     inkscape:pageshadow="2"
     inkscape:zoom="0.5"
     inkscape:cx="-367.9225"
     inkscape:cy="-47.543657"
     inkscape:document-units="px"
     inkscape:current-layer="layer1"
     showgrid="false"
     fit-margin-top="0"
     fit-margin-left="0"
     fit-margin-right="0"
     fit-margin-bottom="0"
     inkscape:window-width="1858"
     inkscape:window-height="1057"
     inkscape:window-x="54"
     inkscape:window-y="-8"
     inkscape:window-maximized="1" />
  <metadata
     id="metadata4392">
    <rdf:RDF>
      <cc:Work
         rdf:about="">
        <dc:format>image/svg+xml</dc:format>
        <dc:type
           rdf:resource="http://purl.org/dc/dcmitype/StillImage" />
        <dc:title></dc:title>
      </cc:Work>
    </rdf:RDF>
  </metadata>
  <g
     inkscape:label="Layer 1"
     inkscape:groupmode="layer"
     id="layer1"
     transform="translate(1143.595,27.626535)">
    <flowRoot
       xml:space="preserve"
       id="flowRoot11184"
       style="font-style:normal;font-weight:normal;font-size:180px;line-height:125%;font-family:sans-serif;letter-spacing:0px;word-spacing:0px;fill:#000000;fill-opacity:1;stroke:none;stroke-width:1px;stroke-linecap:butt;stroke-linejoin:miter;stroke-opacity:1"><flowRegion
         id="flowRegion11186"><rect
           id="rect11188"
           width="1127"
           height="302"
           x="-296"
           y="-9.6141577" /></flowRegion><flowPara
         id="flowPara11190" /></flowRoot>    <g
       id="g6188">
      <path
         clip-path="url(#clipPath9136)"
         sodipodi:nodetypes="cccsssccsscccccccsscccsssccsccssssssccssssccssccsscssscccssccccccsscccccccccccccccsccssssssscssss"
         inkscape:connector-curvature="0"
         id="text4136-9"
         transform="matrix(1,0,0,1.0349189,-1158.7219,-53.586432)"
         d="m 308.52539,25.583984 0,125.999996 36.17969,0 0,-48.5996 c 0,-12.78001 3.06039,-18.361333 9.90039,-18.361333 7.38,0 10.44141,5.581323 10.44141,18.361333 l 0,48.5996 36.35937,0 0,-48.5996 c 0,-30.24001 -10.98102,-43.201177 -36.54102,-43.201177 -8.28,0 -14.94015,1.440313 -20.16015,4.320313 l 0,-38.519532 z M 68.728516,59.783203 c -23.186292,0.937796 -48.364898,31.92106 -53.10161,55.994087 l 0,35.80664 36.179688,0 0,-45 c 0,-15.119989 3.781875,-18.17968 16.921875,-18.17968 l 15.298828,0 0,-28.621094 z m 74.640624,0 c -35.1,0 -50.039062,14.040785 -50.039062,46.800777 0,32.76 14.939062,46.80079 50.039062,46.80079 28.8,0 42.65945,-9.18125 46.43945,-30.78125 l -34.19921,0 c -1.26,6.84 -5.04024,9.90039 -12.24024,9.90039 -8.46,0 -14.2207,-4.68024 -14.2207,-16.74024 l 64.25976,0 0,-9.35937 c 0,-32.580006 -15.11906,-46.621097 -50.03906,-46.621097 z m 104.02734,0 c -29.88,0 -42.83984,8.820156 -42.83984,29.160156 0,36.180001 51.29883,22.319771 51.29883,37.259761 0,5.76 -2.51899,8.10157 -8.45899,8.10157 -5.76,0 -8.28125,-2.88071 -8.28125,-9.72071 l -34.19921,0 c 0,20.16 12.42039,28.80079 41.40039,28.80079 32.04,0 45.71875,-9.36094 45.71875,-30.96094 0,-36.000004 -53.2793,-24.119767 -53.2793,-37.259768 0,-4.5 2.70062,-6.300781 8.64062,-6.300781 6.12,0 8.63868,2.339922 8.63868,7.919922 l 32.2207,0 c 0,-18.9 -12.23938,-27 -40.85938,-27 z m 377.04688,0 c -31.32,0 -44.63867,8.640781 -44.63867,28.800781 l 34.19922,0 c 0,-6.84 2.87937,-9.720703 9.35937,-9.720703 6.66,0 9.36133,3.421485 9.36133,11.521485 l 0,3.419922 -10.62109,0 c -32.22,0 -45.89844,9.179612 -45.89844,30.599612 0,20.34 10.2589,28.98047 34.3789,28.98047 11.7,0 20.3393,-2.52188 26.2793,-7.92188 l 4.14063,6.12109 28.08007,0 0,-57.419918 c 0,-24.12 -13.32062,-34.380859 -44.64062,-34.380859 z m 124.8125,0 c -12.09637,0.177888 -21.19928,2.823694 -27.49219,8.271485 C 705.65149,83.935174 697.69,106.28412 689.13477,125.4707 l 0,62.11328 36.17968,0 0,-39.77929 c 6.12,3.78 14.04141,5.58008 23.94141,5.58008 27.9,0 39.95898,-14.04079 39.95898,-46.80079 0,-32.579992 -12.05898,-46.620777 -39.95898,-46.800777 z m -334.94531,1.800781 24.30078,89.999996 44.27929,0 9.53907,-72.179683 9.36133,72.179683 44.45898,0 24.12109,-89.999996 -36.18164,0 -12.23828,60.480466 -6.30078,-60.480466 -44.46094,0 -8.09961,62.458986 -12.59961,-62.458986 z M 142.83008,80.664062 c 9.54,0 14.03906,4.859532 14.03906,16.019532 l -27.53906,0 c 0,-9.9 5.04,-16.019531 13.5,-16.019532 z m 596.16406,3.958985 c 9.54,0 13.68164,6.480941 13.68164,21.960933 0,15.48 -4.14164,21.95899 -13.68164,21.95899 -9.72,0 -13.85937,-6.47899 -13.85937,-21.95899 0,-15.479992 4.13937,-21.960933 13.85937,-21.960933 z m -113.4707,28.080073 7.20117,0 0,3.24024 c 0,8.46 -2.52086,14.40039 -11.88086,14.40039 -5.94,0 -8.45898,-1.79992 -8.45898,-7.91992 0,-8.82 6.11867,-9.7207 13.13867,-9.72071 z"
         style="font-style:normal;font-weight:normal;font-size:180px;line-height:125%;font-family:sans-serif;letter-spacing:0px;word-spacing:0px;fill:#ffffff;fill-opacity:1;stroke:#f3ffff;stroke-width:1px;stroke-linecap:butt;stroke-linejoin:miter;stroke-opacity:1" />
      <path
         sodipodi:nodetypes="ssssccsssscccs"
         inkscape:connector-curvature="0"
         id="path11178"
         d="m -911.51488,10.197681 c -29.88,0 -42.83984,8.82015 -42.83984,29.16015 0,36.18001 51.30078,22.31977 51.30078,37.25977 0,5.76 -2.52094,8.09961 -8.46094,8.09961 -5.76,0 -8.2793,0.11929 -8.2793,-6.72071 l -34.19921,-0.25 c 0,20.160007 12.41843,26.050779 41.39843,26.050779 32.04,0 45.72071,-9.360919 45.72071,-30.960929 0,-36 -53.2793,-17.43227 -53.2793,-30.57227 0,-4.5 2.69867,-6.73633 8.63867,-6.73633 6.12,0 8.64063,3.55867 8.64063,9.13867 l 32.5957,-3.700394 c 0,0 -0.37633,-3.976646 -0.37695,-4.080846 -0.13522,-18.67601 -12.39819,-26.6875 -40.85938,-26.6875 z"
         style="font-style:normal;font-weight:normal;font-size:180px;line-height:125%;font-family:sans-serif;letter-spacing:0px;word-spacing:0px;fill:#ffffff;fill-opacity:1;stroke:none;stroke-width:1px;stroke-linecap:butt;stroke-linejoin:miter;stroke-opacity:1" />
      <path
         inkscape:connector-curvature="0"
         id="path10902"
         d="m -1015.2199,10.197681 c -16.7029,0 -28.8413,3.18031 -36.9766,10.04297 -8.9604,7.55879 -13.0645,19.58517 -13.0645,36.75585 0,32.76 14.941,46.800779 50.0411,46.800779 28.79982,0 42.6594,-9.181229 46.4394,-30.781249 l -34.0117,0 c -4.4927,7.72885 -7.221,8.65141 -13.4531,8.41797 -6.6811,-0.25026 -12.9827,-4.13906 -13.1953,-15.25781 l 64.25971,0 0,-9.35937 c 0,-32.57999 -15.11919,-46.61914 -50.03901,-46.61914 z m -0.5411,25.29882 c 4.6986,-0.079 9.7083,0.43814 11.9375,3.06446 2.6505,3.12266 2.0682,4.31209 2.1035,8.53515 l -27.541,0 c 0,-4.17201 -0.3543,-5.10556 1.3145,-7.75976 2.2913,-3.64412 7.2907,-3.83985 12.1855,-3.83985 z"
         style="font-style:normal;font-weight:normal;font-size:180px;line-height:125%;font-family:sans-serif;letter-spacing:0px;word-spacing:0px;fill:#ffffff;fill-opacity:1;stroke:none;stroke-width:1px;stroke-linecap:butt;stroke-linejoin:miter;stroke-opacity:1" />
      <path
         sodipodi:nodetypes="ccccsssssccsscc"
         inkscape:connector-curvature="0"
         id="text8737"
         d="m -818.40296,-11.810129 c 0.1723,-1.192 -35.6862,-0.20555 -36.1279,-0.3853 l -0.052,112.939939 36.1797,0 0,-48.599609 c 0,-7.28254 -0.6856,-9.59043 1.435,-12.49664 1.6008,-2.19384 5.8325,-2.56203 8.7748,-2.56203 3.6241,0 7.3147,0.41003 8.918,3.07597 1.6617,2.76293 1.214,5.47855 1.214,11.9827 l 0,48.599609 36.35931,0 0,-48.599609 c 0,-30.24 -10.98102,-43.1992203 -36.54101,-43.1992203 -8.28,0 -14.9401,1.4383603 -20.1601,4.3183603 z"
         style="font-style:normal;font-weight:normal;font-size:180px;line-height:125%;font-family:sans-serif;letter-spacing:0px;word-spacing:0px;fill:#ffffff;fill-opacity:1;stroke:none;stroke-width:1px;stroke-linecap:butt;stroke-linejoin:miter;stroke-opacity:1" />
      <path
         sodipodi:nodetypes="cccccscscccscscscccc"
         inkscape:connector-curvature="0"
         id="text9014"
         d="m -487.97724,72.758795 0,48.121195 33.44728,0 0,-25.78097 c 2.96861,3.164278 6.43134,5.57932 10.38945,7.24472 4.02412,1.66541 8.60897,2.49911 13.75454,2.4991 13.19383,0 23.42002,-4.08053 30.67662,-12.241022 7.25661,-8.216016 10.88323,-19.096768 10.88323,-32.64209 l 0,-1.74899 c -2.81541,-71.504224 -100.97365,-62.8239181 -99.15112,14.548057 z m 43.65063,-32.930306 c 6.07985,0.112271 10.78776,-0.555451 14.46671,1.068386 4.61389,2.036507 7.4617,7.703481 7.68719,17.313863 l 0,1.74899 c 0,7.327797 -1.28605,13.045748 -3.85884,17.153756 -2.50677,4.0525 -6.69638,6.07874 -12.56767,6.07874 -3.82617,0 -7.05943,-0.472933 -9.69824,-1.416661 -2.57278,-0.943737 -4.64931,-2.386776 -6.2325,-4.329749 l 0,-32.473386 c 1.63361,-4.52098 3.68258,-4.998153 10.20335,-5.143939 z"
         style="font-style:normal;font-weight:normal;font-size:191.20266724px;line-height:125%;font-family:sans-serif;letter-spacing:0px;word-spacing:0px;fill:#ffffff;fill-opacity:1;stroke:none;stroke-width:1px;stroke-linecap:butt;stroke-linejoin:miter;stroke-opacity:1" />
      <path
         inkscape:connector-curvature="0"
         id="path11092"
         d="m -520.74175,11.949945 c -0.36955,0.0084 1.11858,0.05674 -10.99805,0.06445 10e-6,2.178253 0.009,4.147171 0.0137,6.242188 -68.91715,-28.480818 -90.61668,83.047817 -23.1914,84.285157 8.47298,0.11777 17.41758,-3.023032 23.3164,-5.214842 l 0,5.841792 32.96094,0 0.043,-91.048826 c -19.54792,-0.147633 -21.77499,-0.17834 -22.14453,-0.169922 z m -11.12696,27.585937 c 0.0794,-0.0011 0.13708,10e-4 0.21485,0 0.0434,10.87225 0.0554,21.88968 -0.0723,34.5918 -1.56483,3.88767 -3.28437,3.51903 -9.42187,3.65625 -5.99162,-0.11064 -10.63225,0.54755 -14.25782,-1.05274 -4.54697,-2.00695 -7.35387,-7.59157 -7.57617,-17.0625 l 0,-1.72461 c 0,-7.22146 -0.29912,-10.18793 2.23633,-14.23632 2.47039,-3.9937 9.01274,-4.16993 14.79883,-4.16993 7.22409,0.14861 11.19472,0.03867 14.07812,-0.002 z"
         style="font-style:normal;font-weight:normal;font-size:191.20266724px;line-height:125%;font-family:sans-serif;letter-spacing:0px;word-spacing:0px;fill:#ffffff;fill-opacity:1;stroke:none;stroke-width:1px;stroke-linecap:butt;stroke-linejoin:miter;stroke-opacity:1" />
      <g
         transform="translate(-1.1642022,-2.8284323)"
         style="fill:#ffffff;fill-opacity:1;stroke:none"
         id="g12340">
        <g
           transform="matrix(1.1781471,0,0,0.84879042,-10.052574,2.4062391)"
           clip-path="url(#clipPath11270)"
           style="font-style:normal;font-weight:normal;font-size:198.68656921px;line-height:125%;font-family:sans-serif;letter-spacing:0px;word-spacing:0px;fill:#ffffff;fill-opacity:1;stroke:none;stroke-width:1px;stroke-linecap:butt;stroke-linejoin:miter;stroke-opacity:1"
           id="text11258">
          <path
             d="m -538.85066,77.103989 0.52203,0 13.57473,-60.828358 26.72114,0 -21.7887,104.970149 -28.16471,0 -15.31286,-55.686567 -0.52203,0 -15.39986,55.686567 -28.46069,0 -23.1903,-104.970149 27.56993,0 14.59752,61.313433 0.52203,0 13.19089,-61.313433 23.20039,0 z"
             style="font-style:normal;font-variant:normal;font-weight:900;font-stretch:normal;font-family:roboto;-inkscape-font-specification:'roboto Heavy';fill:#ffffff;fill-opacity:1;stroke:none;stroke-opacity:1"
             id="path11275"
             inkscape:connector-curvature="0"
             sodipodi:nodetypes="ccccccccccccccccc" />
        </g>
        <path
           style="fill:#ffffff;fill-opacity:1;fill-rule:evenodd;stroke:none;stroke-width:1px;stroke-linecap:butt;stroke-linejoin:miter;stroke-opacity:1"
           d="m -726.46289,103.37836 35.00179,0"
           id="path12318"
           inkscape:connector-curvature="0" />
        <path
           style="fill:#ffffff;fill-opacity:1;fill-rule:evenodd;stroke:none;stroke-width:1px;stroke-linecap:butt;stroke-linejoin:miter;stroke-opacity:1"
           d="m -656.45932,103.55514 34.64823,-0.35356"
           id="path12320"
           inkscape:connector-curvature="0" />
      </g>
    </g>
  </g>
</svg>
